<?xml version="1.0" encoding="utf-8"?>
<!-- Generator: Adobe Illustrator 21.1.0, SVG Export Plug-In . SVG Version: 6.00 Build 0)  -->
<svg version="1.1" id="Camada_1" xmlns="http://www.w3.org/2000/svg" xmlns:xlink="http://www.w3.org/1999/xlink" x="0px" y="0px"
	 viewBox="0 0 200 147.3" style="enable-background:new 0 0 200 147.3;" xml:space="preserve">
<g>
	<path d="M-166.8,46.3c-4,9-7,28-1,37l21,6c7,2,5,4,0,6l-10,2c18,14,8,52-4,58c6,2,9,4,1,6l-12,3c-2,6-4,15-4,24c0,5,1,9,4,13l21,5
		c7,2,4,5-1,6l-176,37c0,0-122-31-130-35c-12-6-23-44-5-59l-5-1c-5-1-7-4,0-6l21-6c6-9,3-27-1-37l-11-2c-5-1-7-4-1-6l6-1
		c-17-9-21-63,7-63l178-27l114,32c7,2,5,4,0,5L-166.8,46.3z M-290.8,191.3l-7-1l-28,6l-2,44l149-33c-8-11-6-29-3-41L-290.8,191.3z
		 M-336.8,237.3l1-38l-117-39c-17,2-9,41-1,45C-447.8,209.3-360.8,231.3-336.8,237.3z M-437.8,107.3c4,13,6,31-2,42l148,32l-1-44
		C-341.8,127.3-383.8,119.3-437.8,107.3z M-281.8,179.3l-2-38l117-39c17,2,10,41,2,45C-170.8,150.3-258.8,173.3-281.8,179.3z
		 M-176.8,48.3l-145,30l-1,44l149-33C-182.8,78.3-180.8,60.3-176.8,48.3z M-331.8,120.3l1-39l-117-39c-17,2-10,42-2,46
		C-442.8,91.3-355.8,113.3-331.8,120.3z"/>
</g>
<g>
	<path d="M185.1,24.3c-2.4,5.5-4.2,17-0.6,22.4l12.7,3.6c4.2,1.2,3,2.4,0,3.6l-6.1,1.2c10.9,8.5,4.8,31.5-2.4,35.1
		c3.6,1.2,5.5,2.4,0.6,3.6l-7.3,1.8c-1.2,3.6-2.4,9.1-2.4,14.5c0,3,0.6,5.5,2.4,7.9l12.7,3c4.2,1.2,2.4,3-0.6,3.6L87.6,147.3
		c0,0-73.9-18.8-78.8-21.2c-7.3-3.6-13.9-26.7-3-35.8l-3-0.6c-3-0.6-4.2-2.4,0-3.6l12.7-3.6c3.6-5.5,1.8-16.4-0.6-22.4l-6.7-1.2
		c-3-0.6-4.2-2.4-0.6-3.6l3.6-0.6C0.9,49.2-1.5,16.4,15.5,16.4L123.4,0l69.1,19.4c4.2,1.2,3,2.4,0,3L185.1,24.3z M110,112.2
		l-4.2-0.6l-17,3.6l-1.2,26.7l90.3-20c-4.8-6.7-3.6-17.6-1.8-24.8L110,112.2z M82.1,140.1l0.6-23L11.8,93.5
		c-10.3,1.2-5.5,24.8-0.6,27.3C14.9,123.1,67.6,136.4,82.1,140.1z M20.9,61.3c2.4,7.9,3.6,18.8-1.2,25.4l89.7,19.4l-0.6-26.7
		C79.1,73.4,53.6,68.5,20.9,61.3z M115.5,104.9l-1.2-23l70.9-23.6c10.3,1.2,6.1,24.8,1.2,27.3C182.7,87.3,129.4,101.3,115.5,104.9z
		 M179.1,25.5L91.2,43.7l-0.6,26.7l90.3-20C175.4,43.7,176.7,32.8,179.1,25.5z M85.2,69.2l0.6-23.6L14.9,21.9
		c-10.3,1.2-6.1,25.4-1.2,27.9C17.9,51.6,70.6,64.9,85.2,69.2z"/>
</g>
</svg>
