<?xml version="1.0" encoding="utf-8"?>
<!-- Generator: Adobe Illustrator 21.1.0, SVG Export Plug-In . SVG Version: 6.00 Build 0)  -->
<svg version="1.1" id="Camada_1" xmlns="http://www.w3.org/2000/svg" xmlns:xlink="http://www.w3.org/1999/xlink" x="0px" y="0px"
	 viewBox="0 0 200 164.4" style="enable-background:new 0 0 200 164.4;" xml:space="preserve">
<path d="M-90.3,55.6l-38.5-19v-8.4c6.4-1.3,11.4-6.9,11.4-13.8c0-7.7-6.3-14-14-14s-14,6.3-14,14c0,1.4,1.1,2.6,2.6,2.6
	s2.6-1.1,2.6-2.6c0-4.9,4-8.8,8.8-8.8s8.8,4,8.8,8.8s-4,8.8-8.8,8.8h-2.6v13.3l-38.4,19l-0.2,0.1c-4,2.3-6.4,6.6-6.4,11.2V69
	c0,5.2,4.2,9.4,9.4,9.4h76.3c5.2,0,9.4-4.2,9.4-9.4v-2.2C-83.9,62.2-86.4,57.9-90.3,55.6z M-89,69c0,2.3-1.9,4.2-4.2,4.2h-76.3
	c-2.3,0-4.2-1.9-4.2-4.2v-2.2c0-2.7,1.5-5.3,3.8-6.7l38.5-19.1l38.6,19.1c2.3,1.4,3.8,4,3.8,6.7C-89,66.8-89,69-89,69z"/>
<path d="M186.5,116.5l-81-40V58.8c13.5-2.7,24-14.5,24-29c0-16.2-13.2-29.4-29.4-29.4S70.7,13.6,70.7,29.8c0,2.9,2.3,5.5,5.5,5.5
	s5.5-2.3,5.5-5.5c0-10.3,8.4-18.5,18.5-18.5s18.5,8.4,18.5,18.5s-8.4,18.5-18.5,18.5h-5.5v28l-80.8,40l-0.4,0.2
	C5,121.3,0,130.3,0,140v4.6c0,11,8.8,19.8,19.8,19.8h160.5c10.9,0,19.8-8.8,19.8-19.8V140C200,130.3,194.7,121.3,186.5,116.5z
	 M189.3,144.7c0,4.8-4,8.8-8.8,8.8H20c-4.8,0-8.8-4-8.8-8.8v-4.6c0-5.7,3.2-11.1,8-14.1l81-40.2l81.2,40.2c4.8,2.9,8,8.4,8,14.1
	L189.3,144.7L189.3,144.7z"/>
</svg>
