<?xml version="1.0" encoding="utf-8"?>
<!-- Generator: Adobe Illustrator 21.1.0, SVG Export Plug-In . SVG Version: 6.00 Build 0)  -->
<svg version="1.1" id="Camada_1" xmlns:dc="http://purl.org/dc/elements/1.1/" xmlns:xl="http://www.w3.org/1999/xlink"
	 xmlns="http://www.w3.org/2000/svg" xmlns:xlink="http://www.w3.org/1999/xlink" x="0px" y="0px" viewBox="0 0 200 200"
	 style="enable-background:new 0 0 200 200;" xml:space="preserve">
<g>
	<title>Canvas 1</title>
	<g>
		<title>Layer 1</title>
		<path d="M-120.5,2.8c-0.6,0-1,0.4-1,1v64c0,0.6,0.4,1,1,1h82c0.6,0,1-0.4,1-1v-64c0-0.6-0.4-1-1-1C-38.5,2.8-120.5,2.8-120.5,2.8z
			 M-108.5,12.8h58c1.7,0,3,1.3,3,3v40c0,1.7-1.3,3-3,3h-58c-1.7,0-3-1.3-3-3v-40C-111.5,14.1-110.1,12.8-108.5,12.8z M-109.5,63.8
			h3v1h-3V63.8z M-120.5,71.8c-0.6,0-1,0.4-1,1v15c0,0.6,0.4,1,1,1h82c0.6,0,1-0.4,1-1v-15c0-0.6-0.4-1-1-1H-120.5z M-114,85
			L-114,85c-0.2-0.1-0.5,0-0.7,0.2c-0.3,0.3-0.3,0.7,0,1c0.2,0.2,0.4,0.2,0.7,0.2c-0.1,0.1-0.1,0.2-0.2,0.3c-0.5,0.5-1.4,0.5-2,0
			c-0.5-0.5-0.5-1.4,0-2c0.2-0.2,0.5-0.4,0.8-0.4c-0.2-0.3-0.2-0.7,0-0.9l0.1-0.1l0,0c0.1,0,0.1,0.1,0.1,0.1c0.3,0.3,0.3,0.7,0,0.9
			c0.3,0,0.6,0.2,0.8,0.4C-114.1,84.7-114,84.8-114,85z M-42.5,79.8v2h-20v-2h-56v-1h78v1H-42.5z"/>
	</g>
</g>
<g>
	<title>Canvas 1</title>
	<g>
		<title>Layer 1</title>
		<path d="M4.7,0C3.4,0,2.3,1,2.3,2.3v148.8c0,1.3,1,2.3,2.3,2.3h190.7c1.3,0,2.3-1,2.3-2.3V2.3c0-1.3-1-2.3-2.3-2.3H4.7z
			 M32.6,23.3h134.9c3.9,0,7,3.1,7,7v93c0,3.9-3.1,7-7,7H32.6c-3.9,0-7-3.1-7-7v-93C25.6,26.4,28.7,23.3,32.6,23.3z M30.2,141.9h7
			v2.3h-7V141.9z M4.7,160.5c-1.3,0-2.3,1-2.3,2.3v34.9c0,1.3,1,2.3,2.3,2.3h190.7c1.3,0,2.3-1,2.3-2.3v-34.9c0-1.3-1-2.3-2.3-2.3
			L4.7,160.5L4.7,160.5z M19.8,191.2L19.8,191.2c-0.5-0.1-1.1,0-1.6,0.4c-0.6,0.6-0.6,1.7,0,2.3c0.4,0.4,1,0.6,1.6,0.4
			c-0.1,0.3-0.3,0.5-0.5,0.7c-1.3,1.3-3.3,1.3-4.6,0s-1.3-3.3,0-4.6c0.5-0.5,1.2-0.8,1.8-0.9c-0.5-0.6-0.5-1.6,0.1-2.2
			c0.1-0.1,0.2-0.2,0.3-0.3l0,0c0.1,0.1,0.2,0.2,0.3,0.3c0.6,0.6,0.6,1.5,0.1,2.2c0.7,0.1,1.3,0.4,1.8,0.9
			C19.5,190.7,19.7,190.9,19.8,191.2z M186,179.1v4.7h-46.5v-4.7H9.3v-2.3h181.4v2.3H186z"/>
	</g>
</g>
</svg>
