<?xml version="1.0" encoding="utf-8"?>
<!-- Generator: Adobe Illustrator 21.1.0, SVG Export Plug-In . SVG Version: 6.00 Build 0)  -->
<svg version="1.1" id="Camada_1" xmlns="http://www.w3.org/2000/svg" xmlns:xlink="http://www.w3.org/1999/xlink" x="0px" y="0px"
	 viewBox="0 0 200 200" style="enable-background:new 0 0 200 200;" xml:space="preserve">
<title>Artboard 25</title>
<path d="M-69.2,76.9l-10.6,16.2c-1.3,1.9-3.2,3.2-5.5,3.7c-0.5,0.1-1.1,0.2-1.6,0.2c-1.6,0-3.1-0.5-4.4-1.3
	c-1.9-1.2-3.1-3.2-3.5-5.4c-0.4-2.2,0.2-4.5,1.6-6.2l14.6-19c0.7-0.9,1.9-1,2.8-0.4c0.9,0.7,1,1.9,0.4,2.8l0,0l-14.6,19
	c-1.4,1.8-1,4.4,0.8,5.8c0.1,0.1,0.1,0.1,0.2,0.1c0.9,0.6,2,0.8,3,0.6c1.2-0.2,2.2-0.9,2.9-1.9l10.6-16.2c0.6-0.9,1.9-1.1,2.8-0.5
	C-68.9,74.8-68.6,76-69.2,76.9L-69.2,76.9z M-27.1,5.2c-3.7-2.7-8.8-2.9-14.3-0.6c-5.6,2.6-10.5,6.6-13.9,11.7
	c-5.1,7.1-7.4,15.2-6.3,21.8c0.2,1.5,0.1,3.1-0.4,4.5c-0.4,1,0.2,2.2,1.2,2.5s2.2-0.2,2.5-1.2l0,0c0.7-2.1,0.9-4.3,0.5-6.5
	c-0.9-5.4,1.2-12.6,5.6-18.8c3.1-4.5,7.3-8.1,12.2-10.4c4.1-1.7,7.8-1.7,10.4,0.1s3.8,5.3,3.5,9.8c-0.5,5.4-2.6,10.6-5.8,14.9
	c-4.3,6.2-10.5,10.6-15.9,11.5c-2.1,0.4-4.1,1.2-5.8,2.5c-0.5,0.4-0.9,0.7-1.3,1.2c-0.8,0.8-0.7,2.1,0.1,2.8c0.8,0.7,1.9,0.7,2.7,0
	c0.3-0.3,0.6-0.6,1-0.8c1.2-0.9,2.6-1.5,4.1-1.8c6.5-1.1,13.4-6,18.5-13.1c3.7-5,6-10.8,6.6-17C-21.5,12.6-23.4,7.9-27.1,5.2z
	 M-70.7,41.6c-0.1-0.2-0.1-0.4,0-0.5c1.8-4,1.3-8.7-1.2-12.2L-89.8,3.9c-0.6-0.9-1.9-1.1-2.8-0.5s-1.1,1.9-0.5,2.8
	c0,0,0,0.1,0.1,0.1l17.8,24.9c1.7,2.4,2,5.6,0.8,8.3c-0.7,1.5-0.5,3.3,0.5,4.6l33,42.7c1.3,1.7,1.1,4.1-0.6,5.4
	c-1.7,1.3-4.1,1.1-5.4-0.6c-0.1-0.1-0.2-0.2-0.2-0.3l-29.9-44.9c-0.9-1.4-2.5-2.2-4.2-2c-3,0.3-5.8-1-7.6-3.4L-106.7,16
	c-0.6-0.9-1.9-1.1-2.8-0.5c-0.9,0.6-1.1,1.9-0.5,2.8c0,0,0,0.1,0.1,0.1l17.8,24.9c2.6,3.6,6.8,5.5,11.2,5.1c0.2,0,0.4,0,0.5,0.2
	l29.9,44.9c1.2,1.8,3,3,5.1,3.4c0.5,0.1,1,0.1,1.4,0.1c4.3,0,7.8-3.5,7.8-7.9c0-1.7-0.6-3.4-1.6-4.8L-70.7,41.6z M-83.5,36.2
	c1.1,0,2-0.9,2-2c0-0.4-0.1-0.8-0.4-1.2L-98.2,9.8c-0.6-0.9-1.9-1.1-2.8-0.5s-1.1,1.9-0.5,2.8l16.3,23.3
	C-84.8,35.9-84.2,36.2-83.5,36.2z"/>
<path d="M93.4,157.3l-22.7,34.5c-2.7,4-6.9,6.9-11.6,7.8c-1.1,0.2-2.3,0.3-3.4,0.3c-3.4,0-6.6-1-9.4-2.9c-4-2.7-6.6-6.9-7.4-11.6
	c-0.8-4.7,0.5-9.5,3.3-13.3l31.2-40.5c1.4-1.9,4.1-2.2,6-0.8c1.9,1.4,2.2,4.1,0.8,6l0,0L49,177.5c-2.9,3.9-2.2,9.4,1.7,12.3
	c0.1,0.1,0.3,0.2,0.4,0.3c1.9,1.3,4.2,1.7,6.4,1.2c2.5-0.5,4.7-2,6.2-4.1l22.6-34.5c1.3-1.9,4-2.4,5.9-1.1
	C94.1,152.8,94.6,155.4,93.4,157.3L93.4,157.3z M183.1,4.6c-7.9-5.7-18.7-6.1-30.4-1.2c-12,5.5-22.3,14.1-29.7,25
	c-10.8,15.1-15.8,32.4-13.5,46.3c0.5,3.2,0.2,6.5-0.8,9.6c-0.8,2.2,0.4,4.7,2.7,5.4s4.7-0.4,5.4-2.7l0,0c1.5-4.4,1.9-9.1,1.2-13.7
	c-1.9-11.5,2.7-26.9,12-40c6.5-9.6,15.5-17.2,26-22.1c8.8-3.7,16.7-3.6,22.1,0.3s8.1,11.3,7.5,20.8c-1.2,11.5-5.4,22.5-12.4,31.8
	c-9.3,13.1-22.3,22.5-33.9,24.4c-4.5,0.8-8.8,2.6-12.4,5.4c-1,0.8-1.9,1.6-2.8,2.5c-1.6,1.7-1.5,4.4,0.2,6c1.6,1.5,4.1,1.5,5.7,0.1
	c0.7-0.6,1.4-1.2,2.1-1.8c2.5-1.9,5.5-3.2,8.6-3.8c13.9-2.3,28.6-12.8,39.4-27.9c7.9-10.6,12.7-23.1,14-36.2
	C194.9,20.4,191,10.3,183.1,4.6z M90.1,82.1c-0.2-0.4-0.2-0.8,0-1.1c3.8-8.5,2.8-18.4-2.6-26L49.4,1.9c-1.3-1.9-4-2.4-5.9-1.1
	c-1.9,1.3-2.4,4-1.1,5.9c0,0.1,0.1,0.1,0.1,0.2l38,53.1c3.7,5.1,4.3,11.8,1.8,17.6c-1.5,3.2-1,7,1.1,9.8l70.3,90.9
	c2.8,3.5,2.2,8.7-1.3,11.5s-8.7,2.2-11.5-1.3c-0.2-0.2-0.3-0.4-0.5-0.7L76.6,92.2c-2-3-5.4-4.6-8.9-4.3c-6.3,0.6-12.4-2.2-16.1-7.3
	l-37.9-53c-1.3-1.9-4-2.4-5.9-1.1s-2.4,4-1.1,5.9c0,0.1,0.1,0.1,0.1,0.2l38,53.1c5.5,7.6,14.5,11.7,23.9,10.8
	c0.4-0.1,0.8,0.1,1.1,0.4l63.7,95.6c2.5,3.8,6.4,6.4,10.9,7.2c1,0.2,2,0.3,3,0.3c9.2,0,16.7-7.5,16.7-16.8c0-3.7-1.2-7.3-3.5-10.2
	L90.1,82.1z M62.9,70.7c2.4,0,4.3-1.9,4.3-4.3c0-0.9-0.3-1.7-0.8-2.5L31.6,14.3c-1.3-1.9-4-2.4-5.9-1.1s-2.4,4-1.1,5.9l34.7,49.6
	C60.2,70,61.5,70.7,62.9,70.7z"/>
</svg>
