<?xml version="1.0" encoding="utf-8"?>
<!-- Generator: Adobe Illustrator 21.1.0, SVG Export Plug-In . SVG Version: 6.00 Build 0)  -->
<svg version="1.1" id="Camada_1" xmlns="http://www.w3.org/2000/svg" xmlns:xlink="http://www.w3.org/1999/xlink" x="0px" y="0px"
	 viewBox="0 0 200 200" style="enable-background:new 0 0 200 200;" xml:space="preserve">
<g>
	<path d="M-22.6,12.2v-4c0-2.2-1.8-4-4-4h-44.8c-2.2,0-4,1.8-4,4v3.9h-2.6v11.5v1.9V32h3.2v4.9h6.2V32h39v4.9h6.2V32h3.2v-6.4v-2
		V12.2H-22.6z M-75.9,14.1h3.1v9.4h-3.1V14.1z M-73.3,12.1V8.2c0-1.1,0.9-2,2-2h44.8c1.1,0,2,0.9,2,2v4h-2.6v11.4h-43.6V12.1H-73.3z
		 M-70.5,34.8h-2.2V32h2.2V34.8z M-25.2,34.8h-2.2V32h2.2V34.8z M-22,30h-1.2h-6.2h-39h-6.2h-1.2v-4.4h48.8h5.1L-22,30L-22,30z
		 M-25.1,23.6v-9.4h3.1v9.4H-25.1z"/>
	<path d="M-64,13.4c1.2,0,2.2-1,2.2-2.2S-62.8,9-64,9c-1.2,0-2.2,1-2.2,2.2S-65.3,13.4-64,13.4z M-64,10c0.7,0,1.2,0.5,1.2,1.2
		s-0.5,1.2-1.2,1.2c-0.7,0-1.2-0.5-1.2-1.2S-64.7,10-64,10z"/>
	<path d="M-49,13.4c1.2,0,2.2-1,2.2-2.2S-47.7,9-49,9c-1.2,0-2.2,1-2.2,2.2S-50.2,13.4-49,13.4z M-49,10c0.7,0,1.2,0.5,1.2,1.2
		s-0.5,1.2-1.2,1.2s-1.2-0.5-1.2-1.2S-49.6,10-49,10z"/>
	<path d="M-33.9,13.4c1.2,0,2.2-1,2.2-2.2s-1-2.2-2.2-2.2c-1.2,0-2.2,1-2.2,2.2S-35.1,13.4-33.9,13.4z M-33.9,10
		c0.7,0,1.2,0.5,1.2,1.2s-0.5,1.2-1.2,1.2c-0.7,0-1.2-0.5-1.2-1.2C-35.1,10.6-34.5,10-33.9,10z"/>
	<path d="M-64,21.7c1.2,0,2.2-1,2.2-2.2s-1-2.2-2.2-2.2c-1.2,0-2.2,1-2.2,2.2S-65.3,21.7-64,21.7z M-64,18.3c0.7,0,1.2,0.5,1.2,1.2
		s-0.5,1.2-1.2,1.2c-0.7,0-1.2-0.5-1.2-1.2S-64.7,18.3-64,18.3z"/>
	<path d="M-49,21.7c1.2,0,2.2-1,2.2-2.2s-1-2.2-2.2-2.2c-1.2,0-2.2,1-2.2,2.2S-50.2,21.7-49,21.7z M-49,18.3c0.7,0,1.2,0.5,1.2,1.2
		s-0.5,1.2-1.2,1.2s-1.2-0.5-1.2-1.2S-49.6,18.3-49,18.3z"/>
	<path d="M-33.9,21.7c1.2,0,2.2-1,2.2-2.2s-1-2.2-2.2-2.2c-1.2,0-2.2,1-2.2,2.2S-35.1,21.7-33.9,21.7z M-33.9,18.3
		c0.7,0,1.2,0.5,1.2,1.2s-0.5,1.2-1.2,1.2c-0.7,0-1.2-0.5-1.2-1.2C-35.1,18.8-34.5,18.3-33.9,18.3z"/>
</g>
<g>
	<path d="M191.1,71.3V57.5c0-7.6-6.2-13.8-13.8-13.8H22.7c-7.6,0-13.8,6.2-13.8,13.8v13.4H0v39.7v6.5v22.5h11v16.8h21.6v-16.8h134.8
		v16.8H189v-16.8h11v-22v-6.9V71.3H191.1z M6.9,77.8h10.8v32.4H6.9V77.8z M15.8,70.8V57.5c0-3.8,3.1-6.9,6.9-6.9h154.6
		c3.8,0,6.9,3.1,6.9,6.9v13.8h-8.9v39.3H24.6V70.8H15.8z M25.7,149.5h-7.8v-9.9h7.8V149.5z M182.1,149.5h-7.8v-9.9h7.8V149.5z
		 M193.1,132.6H189h-21.6H32.6H11H6.9v-15.1h168.5h17.7L193.1,132.6L193.1,132.6z M182.3,110.6V78.2h10.8v32.4H182.3z"/>
	<path d="M47.9,75.4c4.2,0,7.6-3.4,7.6-7.6s-3.4-7.6-7.6-7.6s-7.6,3.4-7.6,7.6C40.3,72,43.7,75.4,47.9,75.4z M47.9,63.7
		c2.3,0,4.1,1.9,4.1,4.1S50.1,72,47.9,72c-2.3,0-4.1-1.9-4.1-4.1S45.6,63.7,47.9,63.7z"/>
	<path d="M100,75.4c4.2,0,7.6-3.4,7.6-7.6s-3.4-7.6-7.6-7.6c-4.2,0-7.6,3.4-7.6,7.6C92.4,72,95.8,75.4,100,75.4z M100,63.7
		c2.3,0,4.1,1.9,4.1,4.1S102.3,72,100,72s-4.1-1.9-4.1-4.1S97.7,63.7,100,63.7z"/>
	<path d="M152.1,75.4c4.2,0,7.6-3.4,7.6-7.6s-3.4-7.6-7.6-7.6c-4.2,0-7.6,3.4-7.6,7.6C144.6,72,148,75.4,152.1,75.4z M152.1,63.7
		c2.3,0,4.1,1.9,4.1,4.1s-1.9,4.1-4.1,4.1c-2.3,0-4.1-1.9-4.1-4.1C148,65.6,149.9,63.7,152.1,63.7z"/>
	<path d="M47.9,104.1c4.2,0,7.6-3.4,7.6-7.6c0-4.2-3.4-7.6-7.6-7.6s-7.6,3.4-7.6,7.6C40.3,100.7,43.7,104.1,47.9,104.1z M47.9,92.4
		c2.3,0,4.1,1.9,4.1,4.1s-1.9,4.1-4.1,4.1c-2.3,0-4.1-1.9-4.1-4.1S45.6,92.4,47.9,92.4z"/>
	<path d="M100,104.1c4.2,0,7.6-3.4,7.6-7.6c0-4.2-3.4-7.6-7.6-7.6c-4.2,0-7.6,3.4-7.6,7.6C92.4,100.7,95.8,104.1,100,104.1z
		 M100,92.4c2.3,0,4.1,1.9,4.1,4.1s-1.9,4.1-4.1,4.1s-4.1-1.9-4.1-4.1S97.7,92.4,100,92.4z"/>
	<path d="M152.1,104.1c4.2,0,7.6-3.4,7.6-7.6c0-4.2-3.4-7.6-7.6-7.6c-4.2,0-7.6,3.4-7.6,7.6C144.6,100.7,148,104.1,152.1,104.1z
		 M152.1,92.4c2.3,0,4.1,1.9,4.1,4.1s-1.9,4.1-4.1,4.1c-2.3,0-4.1-1.9-4.1-4.1C148,94.2,149.9,92.4,152.1,92.4z"/>
</g>
</svg>
