<?xml version="1.0" encoding="utf-8"?>
<!-- Generator: Adobe Illustrator 21.1.0, SVG Export Plug-In . SVG Version: 6.00 Build 0)  -->
<svg version="1.1"
	 id="Camada_1" xmlns:cc="http://creativecommons.org/ns#" xmlns:dc="http://purl.org/dc/elements/1.1/" xmlns:inkscape="http://www.inkscape.org/namespaces/inkscape" xmlns:rdf="http://www.w3.org/1999/02/22-rdf-syntax-ns#" xmlns:sodipodi="http://sodipodi.sourceforge.net/DTD/sodipodi-0.dtd" xmlns:svg="http://www.w3.org/2000/svg"
	 xmlns="http://www.w3.org/2000/svg" xmlns:xlink="http://www.w3.org/1999/xlink" x="0px" y="0px" viewBox="0 0 200 200"
	 style="enable-background:new 0 0 200 200;" xml:space="preserve">
<g transform="translate(0,-952.36218)">
	<path d="M-146.2,954.4c-0.1,0-0.1,0-0.2,0.1l-35,16c-0.6,0.3-0.7,1.1-0.3,1.6l11.4,13.4l-11.4,13.2c-0.4,0.5-0.2,1.3,0.3,1.6
		l11.4,5.2v27.9c0,0.4,0.2,0.8,0.6,0.9l36,16c0.3,0.1,0.6,0.1,0.8,0l36-16c0.3-0.2,0.6-0.5,0.6-0.9v-27.9l11.4-5.2
		c0.6-0.3,0.7-1.1,0.3-1.6l-11.4-13.3l11.5-13.4c0.4-0.5,0.2-1.3-0.3-1.6l-35-16c-0.2-0.1-0.4-0.1-0.6-0.1c-0.2,0-0.4,0.2-0.6,0.3
		l-12.3,13.3l-12.3-13.2C-145.5,954.4-145.9,954.3-146.2,954.4z M-146.2,956.6l11.5,12.4l-34.1,15.2l-10.6-12.5L-146.2,956.6z
		 M-119.8,956.6l33.2,15.2l-10.6,12.4l-34.1-15.2L-119.8,956.6z M-133,970.5l33.5,14.9l-33.5,14.9l-33.5-14.9L-133,970.5z
		 M-168.7,986.6l34.1,15.2l-11.5,12.4l-33.3-15.2L-168.7,986.6z M-97.2,986.6l10.6,12.4l-33.2,15.2l-11.5-12.4L-97.2,986.6z
		 M-134,1003.9v43.9l-34-15.1v-26.3l21.6,9.9c0.4,0.2,0.8,0.1,1.1-0.2L-134,1003.9z M-132,1003.9l11.3,12.2c0.3,0.3,0.7,0.4,1.1,0.2
		l21.6-9.9v26.3l-34,15.1V1003.9z"/>
</g>
<g transform="translate(0,-952.36218)">
	<path d="M73,954.5c-0.2,0-0.2,0-0.4,0.2L1.1,987.4c-1.2,0.6-1.4,2.2-0.6,3.3l23.3,27.4l-23.3,27c-0.8,1-0.4,2.7,0.6,3.3l23.3,10.6
		v57c0,0.8,0.4,1.6,1.2,1.8l73.5,32.7c0.6,0.2,1.2,0.2,1.6,0l73.5-32.7c0.6-0.4,1.2-1,1.2-1.8v-57l23.3-10.6
		c1.2-0.6,1.4-2.2,0.6-3.3l-23.3-27.2l23.5-27.4c0.8-1,0.4-2.7-0.6-3.3l-71.5-32.7c-0.4-0.2-0.8-0.2-1.2-0.2c-0.4,0-0.8,0.4-1.2,0.6
		L99.9,982l-25.1-27C74.4,954.5,73.6,954.3,73,954.5z M73,959l23.5,25.3l-69.6,31L5.2,989.8L73,959z M126.9,959l67.8,31l-21.6,25.3
		l-69.6-31L126.9,959z M99.9,987.4l68.4,30.4l-68.4,30.4l-68.4-30.4L99.9,987.4z M27,1020.2l69.6,31l-23.5,25.3l-68-31L27,1020.2z
		 M173,1020.2l21.6,25.3l-67.8,31l-23.5-25.3L173,1020.2z M97.9,1055.6v89.6l-69.4-30.8v-53.7l44.1,20.2c0.8,0.4,1.6,0.2,2.2-0.4
		L97.9,1055.6z M102,1055.6l23.1,24.9c0.6,0.6,1.4,0.8,2.2,0.4l44.1-20.2v53.7l-69.4,30.8V1055.6z"/>
</g>
</svg>
